<svg xmlns="http://www.w3.org/2000/svg" viewBox="0 0 450 449.79"><defs><style>.cls-1,.cls-3{fill:#e9e0d6;}.cls-2{fill:#c69c6d;}.cls-3{stroke:#c69c6d;stroke-miterlimit:10;}</style></defs><title>caesar</title><g id="Layer_2" data-name="Layer 2"><g id="Pantheon"><path class="cls-1" d="M450,422.29v27.5H0v-27.5l22.5-27.5h405Z"/><rect class="cls-1" x="153.33" y="128.79" width="50" height="276"/><rect class="cls-1" x="246.67" y="128.79" width="50" height="276"/><rect class="cls-1" x="60" y="128.79" width="50" height="276"/><rect class="cls-1" x="340" y="128.79" width="50" height="276"/><path class="cls-1" d="M224.43.18,2.65,153a1,1,0,0,0,.57,1.82H446.79a1,1,0,0,0,.57-1.82L225.57.18A1,1,0,0,0,224.43.18Z"/></g><g id="Shading"><polyline class="cls-2" points="60 154.79 110 154.79 110 169.79 60 154.79"/><polyline class="cls-2" points="153 154.79 203 154.79 203 169.79 153 154.79"/><polyline class="cls-2" points="247 154.79 297 154.79 297 169.79 247 154.79"/><polyline class="cls-2" points="340 154.79 390 154.79 390 169.79 340 154.79"/><path class="cls-3" d="M224.5,7.29"/><polyline class="cls-2" points="110 394.79 153 394.79 110 404.79"/><polyline class="cls-2" points="203.33 394.79 246.67 394.79 203 404.79"/><polyline class="cls-2" points="297 394.79 340 394.79 297 404.79"/><polyline class="cls-2" points="390 394.79 427 394.79 390 404.79"/></g></g></svg>